<?xml version="1.0" encoding="UTF-8"?>
<svg viewBox="0 0 60 60" xmlns="http://www.w3.org/2000/svg">
 <g stroke="#4c4c4c">
  <path transform="matrix(.59349 -.1545 .1545 .59349 -20.381 23.679)" d="m42.128-11.978h46.745a2 2 0 0 1 2 2v46.385a2 2 0 0 1 -2 2h-46.745a2 2 0 0 1 -2 -2v-46.385a2 2 0 0 1 2 -2" fill="#b3b3b3" fill-rule="evenodd" stroke-width="3.0574"/>
  <path transform="matrix(.59349 -.1545 .1545 .59349 -20.381 23.679)" d="m45.886-4.4206h38.508" fill="none" stroke-linecap="round" stroke-linejoin="round" stroke-width="2.0382"/>
  <path transform="matrix(.59349 -.1545 .1545 .59349 -20.381 23.679)" d="m45.886 2.666h38.508" fill="none" stroke-linecap="round" stroke-linejoin="round" stroke-width="2.0382"/>
  <path transform="matrix(.59349 -.1545 .1545 .59349 -20.381 23.679)" d="m45.886 9.7526h38.508" fill="none" stroke-linecap="round" stroke-linejoin="round" stroke-width="2.0382"/>
  <path transform="matrix(.59349 -.1545 .1545 .59349 -20.381 23.679)" d="m45.886 16.839h38.508" fill="none" stroke-linecap="round" stroke-linejoin="round" stroke-width="2.0382"/>
  <path transform="matrix(.59349 -.1545 .1545 .59349 -20.381 23.679)" d="m45.886 23.926h38.508" fill="none" stroke-linecap="round" stroke-linejoin="round" stroke-width="2.0382"/>
  <path transform="matrix(.59349 -.1545 .1545 .59349 -20.381 23.679)" d="m45.828 31.012h21.349" fill="none" stroke-linecap="round" stroke-linejoin="round" stroke-width="2.0382"/>
 </g>
 <g stroke="#4c4c4c">
  <path transform="matrix(.46255 .40268 -.40268 .46255 11.733 4.2991)" d="m42.128-11.978h46.745a2 2 0 0 1 2 2v46.385a2 2 0 0 1 -2 2h-46.745a2 2 0 0 1 -2 -2v-46.385a2 2 0 0 1 2 -2" fill="#b3b3b3" fill-rule="evenodd" stroke-width="3.0574"/>
  <path transform="matrix(.46255 .40268 -.40268 .46255 11.733 4.2991)" d="m45.886-4.4206h38.508" fill="none" stroke-linecap="round" stroke-linejoin="round" stroke-width="2.0382"/>
  <path transform="matrix(.46255 .40268 -.40268 .46255 11.733 4.2991)" d="m45.886 2.666h38.508" fill="none" stroke-linecap="round" stroke-linejoin="round" stroke-width="2.0382"/>
  <path transform="matrix(.46255 .40268 -.40268 .46255 11.733 4.2991)" d="m45.886 9.7526h38.508" fill="none" stroke-linecap="round" stroke-linejoin="round" stroke-width="2.0382"/>
  <path transform="matrix(.46255 .40268 -.40268 .46255 11.733 4.2991)" d="m45.886 16.839h38.508" fill="none" stroke-linecap="round" stroke-linejoin="round" stroke-width="2.0382"/>
  <path transform="matrix(.46255 .40268 -.40268 .46255 11.733 4.2991)" d="m45.886 23.926h38.508" fill="none" stroke-linecap="round" stroke-linejoin="round" stroke-width="2.0382"/>
  <path transform="matrix(.46255 .40268 -.40268 .46255 11.733 4.2991)" d="m45.828 31.012h21.349" fill="none" stroke-linecap="round" stroke-linejoin="round" stroke-width="2.0382"/>
 </g>
 <g stroke="#4c4c4c">
  <path transform="matrix(.60994 .063858 -.063858 .60994 -7.6389 6.8198)" d="m42.128-11.978h46.745a2 2 0 0 1 2 2v46.385a2 2 0 0 1 -2 2h-46.745a2 2 0 0 1 -2 -2v-46.385a2 2 0 0 1 2 -2" fill="#b3b3b3" fill-rule="evenodd" stroke-width="3.0574"/>
  <path transform="matrix(.60994 .063858 -.063858 .60994 -7.6389 6.8198)" d="m45.886-4.4206h38.508" fill="none" stroke-linecap="round" stroke-linejoin="round" stroke-width="2.0382"/>
  <path transform="matrix(.60994 .063858 -.063858 .60994 -7.6389 6.8198)" d="m45.886 2.666h38.508" fill="none" stroke-linecap="round" stroke-linejoin="round" stroke-width="2.0382"/>
  <path transform="matrix(.60994 .063858 -.063858 .60994 -7.6389 6.8198)" d="m45.886 9.7526h38.508" fill="none" stroke-linecap="round" stroke-linejoin="round" stroke-width="2.0382"/>
  <path transform="matrix(.60994 .063858 -.063858 .60994 -7.6389 6.8198)" d="m45.886 16.839h38.508" fill="none" stroke-linecap="round" stroke-linejoin="round" stroke-width="2.0382"/>
  <path transform="matrix(.60994 .063858 -.063858 .60994 -7.6389 6.8198)" d="m45.886 23.926h38.508" fill="none" stroke-linecap="round" stroke-linejoin="round" stroke-width="2.0382"/>
  <path transform="matrix(.60994 .063858 -.063858 .60994 -7.6389 6.8198)" d="m45.828 31.012h21.349" fill="none" stroke-linecap="round" stroke-linejoin="round" stroke-width="2.0382"/>
 </g>
 <path transform="matrix(.86245 0 0 .86245 -26.598 12.15)" d="m74.467 33.682c13.075 19.187 18.504 19.746 21.315 17.264 2.6309-2.842 3.5969-7.6241-17.277-20.04l-4.0384 2.776z" fill="#b3b3b3" fill-rule="evenodd" stroke="#333" stroke-linecap="round" stroke-linejoin="round" stroke-width="3.125"/>
 <path transform="translate(46.299 -46.603)" d="m-1.9794 76.195a15.475 15.475 0 1 0 -30.951 0 15.475 15.475 0 1 0 30.951 0z" fill="#b3b3b3" fill-rule="evenodd"/>
 <path transform="matrix(.91141 .095421 -.095421 .91141 -29.173 10.628)" d="m51.395 2.4841 28.271 0.28204" fill="none" stroke="#4c4c4c" stroke-linecap="round" stroke-linejoin="round" stroke-width="2.0461"/>
 <path transform="matrix(.91141 .095421 -.095421 .91141 -29.173 10.628)" d="m47.86 9.7434 36.535 0.00917" fill="none" stroke="#4c4c4c" stroke-linecap="round" stroke-linejoin="round" stroke-width="2.0461"/>
 <path transform="matrix(.91141 .095421 -.095421 .91141 -29.173 10.628)" d="m45.886 16.839h38.508" fill="none" stroke="#4c4c4c" stroke-linecap="round" stroke-linejoin="round" stroke-width="2.0461"/>
 <path transform="matrix(.91141 .095421 -.095421 .91141 -29.173 10.628)" d="m49.227 23.774 31.416 0.15019" fill="none" stroke="#4c4c4c" stroke-linecap="round" stroke-linejoin="round" stroke-width="2.0461"/>
 <path transform="translate(47.378 -46.063)" d="m-18.312 57.969c-9.8089 0-17.781 7.9724-17.781 17.781s7.9724 17.75 17.781 17.75 17.781-7.9411 17.781-17.75-7.9724-17.781-17.781-17.781zm-0.09375 3.9062c7.7217 0 13.969 6.247 13.969 13.969s-6.247 14-13.969 14-14-6.2783-14-14 6.2783-13.969 14-13.969z" fill="#7f7f7f" fill-rule="evenodd" stroke="#333" stroke-width="2.5"/>
</svg>
